# xmcd
#
# Track frame offsets: 
#        150
#        36461
#        57789
#        75055
#        91697
#        112867
#        134901
#        162282
#        185504
#        197811
#        209327
#
# Disc length: 3202 seconds
#
# Revision: 0
# Processed by: cddbd v1.5.2PL0 Copyright (c) Steve Scherf et al.
# Submitted via: ExactAudioCopy v0.99pb5
#
DISCID=8e0c800b
DTITLE=Reggie Miles - 51 Highway Blues
DYEAR=2006
DGENRE=Blues
TTITLE0=51 Highway Blues
TTITLE1=Back Door Man
TTITLE2=Blues In My Lap
TTITLE3=Broke Down Engine
TTITLE4=Last Dime Blues
TTITLE5=Blues About Midnight
TTITLE6=Mourning Blues
TTITLE7=Motherless Children
TTITLE8=What Got Wrong?
TTITLE9=Stray Dog Blues
TTITLE10=Katrina Blues
EXTD=
EXTT0=
EXTT1=
EXTT2=
EXTT3=
EXTT4=
EXTT5=
EXTT6=
EXTT7=
EXTT8=
EXTT9=
EXTT10=
PLAYORDER=
